<?xml version="1.0" standalone="no"?>
<!DOCTYPE svg PUBLIC "-//W3C//DTD SVG 20010904//EN"
 "http://www.w3.org/TR/2001/REC-SVG-20010904/DTD/svg10.dtd">
<svg version="1.0" xmlns="http://www.w3.org/2000/svg"
 width="700.000000pt" height="700.000000pt" viewBox="0 0 700.000000 700.000000"
 preserveAspectRatio="xMidYMid meet">
<metadata>
Created by potrace 1.11, written by Peter Selinger 2001-2013
</metadata>
<g transform="translate(0.000000,700.000000) scale(0.100000,-0.100000)"
fill="#000000" stroke="none">
<path d="M2120 6118 c-128 -16 -271 -94 -358 -194 -52 -60 -106 -169 -125
-252 -12 -54 -15 -394 -15 -2319 0 -2545 -8 -2309 82 -2398 57 -57 118 -81
198 -78 83 3 147 42 229 139 15 17 49 56 75 86 27 30 78 87 114 128 36 40 76
86 90 101 32 34 59 65 195 219 60 69 114 130 120 136 5 6 39 44 75 85 36 40
83 94 106 119 66 73 103 115 279 315 225 255 264 295 305 313 30 13 109 16
515 17 264 1 496 5 515 9 55 11 161 53 206 84 158 105 238 241 269 456 3 21 7
48 10 60 2 12 7 39 10 61 8 54 53 346 59 382 3 15 15 89 26 163 11 74 22 142
25 150 2 8 6 38 10 65 3 28 8 57 10 65 2 8 7 37 10 64 3 27 12 86 20 130 8 45
17 99 20 121 3 22 10 69 16 105 6 36 13 81 16 100 2 19 15 100 28 180 14 80
27 162 30 183 11 83 15 107 34 222 11 66 23 145 27 175 3 30 8 58 10 62 16 26
23 222 11 289 -13 74 -62 179 -116 247 -45 57 -141 133 -206 163 -117 54 -47
52 -1515 53 -745 1 -1380 -2 -1410 -6z"/>
</g>
</svg>
